<mxfile host="app.diagrams.net" modified="2021-05-15T03:19:02.296Z" agent="5.0 (Windows NT 10.0; Win64; x64) AppleWebKit/537.36 (KHTML, like Gecko) Chrome/90.0.4430.93 Safari/537.36 Edg/90.0.818.56" etag="YA2faB3lgFo9lsexHIKt" version="14.6.9" type="github">
  <diagram id="RZjiCbVJ7V6TnGSqnXE6" name="Page-1">
    <mxGraphModel dx="1117" dy="679" grid="0" gridSize="10" guides="1" tooltips="1" connect="1" arrows="1" fold="1" page="1" pageScale="1" pageWidth="850" pageHeight="1100" math="0" shadow="0">
      <root>
        <mxCell id="0" />
        <mxCell id="1" parent="0" />
        <mxCell id="Cr78V_-LG8LHotjtUdBT-18" value="设备参数" style="ellipse;whiteSpace=wrap;html=1;" parent="1" vertex="1">
          <mxGeometry x="20" y="300" width="100" height="40" as="geometry" />
        </mxCell>
        <mxCell id="Cr78V_-LG8LHotjtUdBT-19" value="设备参数" style="ellipse;whiteSpace=wrap;html=1;" parent="1" vertex="1">
          <mxGeometry x="20" y="370" width="100" height="40" as="geometry" />
        </mxCell>
        <mxCell id="W33lec69Kxmk0r_ni0zW-13" style="endArrow=none;html=1;entryX=0.5;entryY=1;entryDx=0;entryDy=0;rounded=1;exitX=0.5;exitY=0;exitDx=0;exitDy=0;" parent="1" source="Cr78V_-LG8LHotjtUdBT-20" target="Cr78V_-LG8LHotjtUdBT-21" edge="1">
          <mxGeometry relative="1" as="geometry" />
        </mxCell>
        <mxCell id="Cr78V_-LG8LHotjtUdBT-20" value="设备参数" style="ellipse;whiteSpace=wrap;html=1;" parent="1" vertex="1">
          <mxGeometry x="22" y="440" width="100" height="40" as="geometry" />
        </mxCell>
        <mxCell id="W33lec69Kxmk0r_ni0zW-43" style="edgeStyle=none;rounded=1;jumpStyle=none;orthogonalLoop=1;jettySize=auto;html=1;exitX=1;exitY=0.5;exitDx=0;exitDy=0;entryX=0;entryY=0.5;entryDx=0;entryDy=0;startArrow=none;endArrow=none;" parent="1" source="Cr78V_-LG8LHotjtUdBT-21" target="Cr78V_-LG8LHotjtUdBT-23" edge="1">
          <mxGeometry relative="1" as="geometry" />
        </mxCell>
        <mxCell id="Cr78V_-LG8LHotjtUdBT-21" value="测试过程信息" style="rounded=0;whiteSpace=wrap;html=1;" parent="1" vertex="1">
          <mxGeometry x="140" y="370" width="110" height="40" as="geometry" />
        </mxCell>
        <mxCell id="W33lec69Kxmk0r_ni0zW-50" style="edgeStyle=none;rounded=1;jumpStyle=none;orthogonalLoop=1;jettySize=auto;html=1;exitX=1;exitY=0.5;exitDx=0;exitDy=0;entryX=0;entryY=0.5;entryDx=0;entryDy=0;startArrow=none;endArrow=none;" parent="1" source="Cr78V_-LG8LHotjtUdBT-22" target="W33lec69Kxmk0r_ni0zW-5" edge="1">
          <mxGeometry relative="1" as="geometry" />
        </mxCell>
        <mxCell id="Cr78V_-LG8LHotjtUdBT-22" value="产生" style="rhombus;whiteSpace=wrap;html=1;" parent="1" vertex="1">
          <mxGeometry x="490" y="370" width="100" height="40" as="geometry" />
        </mxCell>
        <mxCell id="W33lec69Kxmk0r_ni0zW-44" style="edgeStyle=none;rounded=1;jumpStyle=none;orthogonalLoop=1;jettySize=auto;html=1;exitX=1;exitY=0.5;exitDx=0;exitDy=0;entryX=0;entryY=0.5;entryDx=0;entryDy=0;startArrow=none;endArrow=none;" parent="1" source="Cr78V_-LG8LHotjtUdBT-23" target="W33lec69Kxmk0r_ni0zW-6" edge="1">
          <mxGeometry relative="1" as="geometry" />
        </mxCell>
        <mxCell id="Cr78V_-LG8LHotjtUdBT-23" value="产生" style="rhombus;whiteSpace=wrap;html=1;" parent="1" vertex="1">
          <mxGeometry x="260" y="370" width="100" height="40" as="geometry" />
        </mxCell>
        <mxCell id="yrqieHvuDTa2ceDJcDDq-3" style="edgeStyle=none;orthogonalLoop=1;jettySize=auto;html=1;exitX=1;exitY=0.5;exitDx=0;exitDy=0;entryX=0;entryY=0.5;entryDx=0;entryDy=0;endArrow=none;" edge="1" parent="1" source="W33lec69Kxmk0r_ni0zW-1" target="W33lec69Kxmk0r_ni0zW-3">
          <mxGeometry relative="1" as="geometry" />
        </mxCell>
        <mxCell id="W33lec69Kxmk0r_ni0zW-1" value="工号" style="ellipse;whiteSpace=wrap;html=1;" parent="1" vertex="1">
          <mxGeometry x="234" y="230" width="100" height="40" as="geometry" />
        </mxCell>
        <mxCell id="yrqieHvuDTa2ceDJcDDq-4" style="edgeStyle=none;orthogonalLoop=1;jettySize=auto;html=1;exitX=1;exitY=0.5;exitDx=0;exitDy=0;endArrow=none;" edge="1" parent="1" source="W33lec69Kxmk0r_ni0zW-2">
          <mxGeometry relative="1" as="geometry">
            <mxPoint x="370.6191057477679" y="288.1428571428572" as="targetPoint" />
          </mxGeometry>
        </mxCell>
        <mxCell id="W33lec69Kxmk0r_ni0zW-2" value="密码" style="ellipse;whiteSpace=wrap;html=1;" parent="1" vertex="1">
          <mxGeometry x="234" y="290" width="100" height="40" as="geometry" />
        </mxCell>
        <mxCell id="W33lec69Kxmk0r_ni0zW-47" style="edgeStyle=none;rounded=1;jumpStyle=none;orthogonalLoop=1;jettySize=auto;html=1;exitX=0.5;exitY=1;exitDx=0;exitDy=0;entryX=0.5;entryY=0;entryDx=0;entryDy=0;startArrow=none;endArrow=none;" parent="1" source="W33lec69Kxmk0r_ni0zW-3" target="W33lec69Kxmk0r_ni0zW-22" edge="1">
          <mxGeometry relative="1" as="geometry" />
        </mxCell>
        <mxCell id="W33lec69Kxmk0r_ni0zW-3" value="测试人员" style="rounded=0;whiteSpace=wrap;html=1;" parent="1" vertex="1">
          <mxGeometry x="370" y="270" width="110" height="40" as="geometry" />
        </mxCell>
        <mxCell id="W33lec69Kxmk0r_ni0zW-46" style="edgeStyle=none;rounded=1;jumpStyle=none;orthogonalLoop=1;jettySize=auto;html=1;exitX=0.5;exitY=0;exitDx=0;exitDy=0;entryX=0.5;entryY=1;entryDx=0;entryDy=0;startArrow=none;endArrow=none;" parent="1" source="W33lec69Kxmk0r_ni0zW-4" edge="1">
          <mxGeometry relative="1" as="geometry">
            <mxPoint x="425" y="527" as="targetPoint" />
          </mxGeometry>
        </mxCell>
        <mxCell id="W33lec69Kxmk0r_ni0zW-4" value="测试结果" style="rounded=0;whiteSpace=wrap;html=1;" parent="1" vertex="1">
          <mxGeometry x="370" y="537" width="110" height="40" as="geometry" />
        </mxCell>
        <mxCell id="yrqieHvuDTa2ceDJcDDq-5" style="edgeStyle=none;orthogonalLoop=1;jettySize=auto;html=1;exitX=0.5;exitY=1;exitDx=0;exitDy=0;entryX=1;entryY=0.5;entryDx=0;entryDy=0;endArrow=none;" edge="1" parent="1" source="W33lec69Kxmk0r_ni0zW-5" target="W33lec69Kxmk0r_ni0zW-36">
          <mxGeometry relative="1" as="geometry" />
        </mxCell>
        <mxCell id="W33lec69Kxmk0r_ni0zW-5" value="测试信息" style="rounded=0;whiteSpace=wrap;html=1;" parent="1" vertex="1">
          <mxGeometry x="600" y="370" width="110" height="40" as="geometry" />
        </mxCell>
        <mxCell id="W33lec69Kxmk0r_ni0zW-49" style="edgeStyle=none;rounded=1;jumpStyle=none;orthogonalLoop=1;jettySize=auto;html=1;exitX=1;exitY=0.5;exitDx=0;exitDy=0;entryX=0;entryY=0.5;entryDx=0;entryDy=0;startArrow=none;endArrow=none;" parent="1" source="W33lec69Kxmk0r_ni0zW-6" target="Cr78V_-LG8LHotjtUdBT-22" edge="1">
          <mxGeometry relative="1" as="geometry" />
        </mxCell>
        <mxCell id="W33lec69Kxmk0r_ni0zW-6" value="测试设备" style="rounded=0;whiteSpace=wrap;html=1;" parent="1" vertex="1">
          <mxGeometry x="370" y="370" width="110" height="40" as="geometry" />
        </mxCell>
        <mxCell id="W33lec69Kxmk0r_ni0zW-11" value="" style="endArrow=none;html=1;entryX=0.5;entryY=0;entryDx=0;entryDy=0;rounded=1;exitX=0.5;exitY=1;exitDx=0;exitDy=0;" parent="1" source="Cr78V_-LG8LHotjtUdBT-18" target="Cr78V_-LG8LHotjtUdBT-21" edge="1">
          <mxGeometry width="50" height="50" relative="1" as="geometry">
            <mxPoint x="110" y="330" as="sourcePoint" />
            <mxPoint x="160" y="280" as="targetPoint" />
          </mxGeometry>
        </mxCell>
        <mxCell id="W33lec69Kxmk0r_ni0zW-12" value="" style="endArrow=none;html=1;entryX=0;entryY=0.5;entryDx=0;entryDy=0;" parent="1" target="Cr78V_-LG8LHotjtUdBT-21" edge="1">
          <mxGeometry width="50" height="50" relative="1" as="geometry">
            <mxPoint x="110" y="390" as="sourcePoint" />
            <mxPoint x="140" y="450" as="targetPoint" />
          </mxGeometry>
        </mxCell>
        <mxCell id="W33lec69Kxmk0r_ni0zW-30" style="edgeStyle=none;rounded=1;jumpStyle=none;orthogonalLoop=1;jettySize=auto;html=1;exitX=1;exitY=0.5;exitDx=0;exitDy=0;startArrow=none;endArrow=none;" parent="1" source="W33lec69Kxmk0r_ni0zW-16" edge="1">
          <mxGeometry relative="1" as="geometry">
            <mxPoint x="370" y="410" as="targetPoint" />
          </mxGeometry>
        </mxCell>
        <mxCell id="W33lec69Kxmk0r_ni0zW-16" value="使用额定电压" style="ellipse;whiteSpace=wrap;html=1;" parent="1" vertex="1">
          <mxGeometry x="225" y="592" width="100" height="40" as="geometry" />
        </mxCell>
        <mxCell id="W33lec69Kxmk0r_ni0zW-29" style="edgeStyle=none;rounded=1;jumpStyle=none;orthogonalLoop=1;jettySize=auto;html=1;exitX=1;exitY=0.5;exitDx=0;exitDy=0;entryX=0;entryY=1;entryDx=0;entryDy=0;startArrow=none;endArrow=none;" parent="1" source="W33lec69Kxmk0r_ni0zW-17" target="W33lec69Kxmk0r_ni0zW-6" edge="1">
          <mxGeometry relative="1" as="geometry" />
        </mxCell>
        <mxCell id="W33lec69Kxmk0r_ni0zW-17" value="互感器编号" style="ellipse;whiteSpace=wrap;html=1;" parent="1" vertex="1">
          <mxGeometry x="225" y="550" width="100" height="40" as="geometry" />
        </mxCell>
        <mxCell id="W33lec69Kxmk0r_ni0zW-28" style="edgeStyle=none;rounded=1;jumpStyle=none;orthogonalLoop=1;jettySize=auto;html=1;exitX=1;exitY=0.5;exitDx=0;exitDy=0;startArrow=none;endArrow=none;entryX=0;entryY=1;entryDx=0;entryDy=0;" parent="1" source="W33lec69Kxmk0r_ni0zW-18" edge="1" target="W33lec69Kxmk0r_ni0zW-6">
          <mxGeometry relative="1" as="geometry">
            <mxPoint x="370" y="370" as="targetPoint" />
          </mxGeometry>
        </mxCell>
        <mxCell id="W33lec69Kxmk0r_ni0zW-18" value="接口信息" style="ellipse;whiteSpace=wrap;html=1;" parent="1" vertex="1">
          <mxGeometry x="220" y="510" width="100" height="40" as="geometry" />
        </mxCell>
        <mxCell id="W33lec69Kxmk0r_ni0zW-26" style="edgeStyle=none;rounded=1;jumpStyle=none;orthogonalLoop=1;jettySize=auto;html=1;exitX=1;exitY=0.5;exitDx=0;exitDy=0;entryX=0;entryY=1;entryDx=0;entryDy=0;startArrow=none;endArrow=none;" parent="1" source="W33lec69Kxmk0r_ni0zW-19" target="W33lec69Kxmk0r_ni0zW-6" edge="1">
          <mxGeometry relative="1" as="geometry" />
        </mxCell>
        <mxCell id="W33lec69Kxmk0r_ni0zW-19" value="生产厂家" style="ellipse;whiteSpace=wrap;html=1;" parent="1" vertex="1">
          <mxGeometry x="215" y="434" width="100" height="40" as="geometry" />
        </mxCell>
        <mxCell id="W33lec69Kxmk0r_ni0zW-27" style="edgeStyle=none;rounded=1;jumpStyle=none;orthogonalLoop=1;jettySize=auto;html=1;exitX=1;exitY=0.5;exitDx=0;exitDy=0;startArrow=none;endArrow=none;entryX=0;entryY=1;entryDx=0;entryDy=0;" parent="1" source="W33lec69Kxmk0r_ni0zW-20" edge="1" target="W33lec69Kxmk0r_ni0zW-6">
          <mxGeometry relative="1" as="geometry">
            <mxPoint x="370" y="370" as="targetPoint" />
          </mxGeometry>
        </mxCell>
        <mxCell id="W33lec69Kxmk0r_ni0zW-20" value="型号" style="ellipse;whiteSpace=wrap;html=1;" parent="1" vertex="1">
          <mxGeometry x="220" y="472" width="100" height="40" as="geometry" />
        </mxCell>
        <mxCell id="W33lec69Kxmk0r_ni0zW-48" style="edgeStyle=none;rounded=1;jumpStyle=none;orthogonalLoop=1;jettySize=auto;html=1;exitX=0.5;exitY=1;exitDx=0;exitDy=0;entryX=0.5;entryY=0;entryDx=0;entryDy=0;startArrow=none;endArrow=none;" parent="1" source="W33lec69Kxmk0r_ni0zW-22" target="W33lec69Kxmk0r_ni0zW-6" edge="1">
          <mxGeometry relative="1" as="geometry" />
        </mxCell>
        <mxCell id="W33lec69Kxmk0r_ni0zW-22" value="控制" style="rhombus;whiteSpace=wrap;html=1;" parent="1" vertex="1">
          <mxGeometry x="375" y="320" width="100" height="40" as="geometry" />
        </mxCell>
        <mxCell id="W33lec69Kxmk0r_ni0zW-45" style="edgeStyle=none;rounded=1;jumpStyle=none;orthogonalLoop=1;jettySize=auto;html=1;exitX=0.5;exitY=0;exitDx=0;exitDy=0;entryX=0.5;entryY=1;entryDx=0;entryDy=0;startArrow=none;endArrow=none;" parent="1" source="W33lec69Kxmk0r_ni0zW-23" target="W33lec69Kxmk0r_ni0zW-6" edge="1">
          <mxGeometry relative="1" as="geometry" />
        </mxCell>
        <mxCell id="W33lec69Kxmk0r_ni0zW-23" value="存储" style="rhombus;whiteSpace=wrap;html=1;" parent="1" vertex="1">
          <mxGeometry x="375" y="480" width="100" height="40" as="geometry" />
        </mxCell>
        <mxCell id="W33lec69Kxmk0r_ni0zW-31" style="edgeStyle=none;rounded=1;jumpStyle=none;orthogonalLoop=1;jettySize=auto;html=1;exitX=0.5;exitY=0;exitDx=0;exitDy=0;entryX=0.5;entryY=1;entryDx=0;entryDy=0;startArrow=none;endArrow=none;" parent="1" source="W33lec69Kxmk0r_ni0zW-24" target="W33lec69Kxmk0r_ni0zW-4" edge="1">
          <mxGeometry relative="1" as="geometry" />
        </mxCell>
        <mxCell id="W33lec69Kxmk0r_ni0zW-24" value="角度" style="ellipse;whiteSpace=wrap;html=1;" parent="1" vertex="1">
          <mxGeometry x="325" y="607" width="100" height="40" as="geometry" />
        </mxCell>
        <mxCell id="W33lec69Kxmk0r_ni0zW-32" style="edgeStyle=none;rounded=1;jumpStyle=none;orthogonalLoop=1;jettySize=auto;html=1;exitX=0.5;exitY=0;exitDx=0;exitDy=0;startArrow=none;endArrow=none;" parent="1" source="W33lec69Kxmk0r_ni0zW-25" edge="1">
          <mxGeometry relative="1" as="geometry">
            <mxPoint x="420" y="577" as="targetPoint" />
          </mxGeometry>
        </mxCell>
        <mxCell id="W33lec69Kxmk0r_ni0zW-25" value="比差" style="ellipse;whiteSpace=wrap;html=1;" parent="1" vertex="1">
          <mxGeometry x="425" y="607" width="100" height="40" as="geometry" />
        </mxCell>
        <mxCell id="yrqieHvuDTa2ceDJcDDq-6" style="edgeStyle=none;orthogonalLoop=1;jettySize=auto;html=1;exitX=1;exitY=0.5;exitDx=0;exitDy=0;entryX=0.5;entryY=0;entryDx=0;entryDy=0;endArrow=none;" edge="1" parent="1" source="W33lec69Kxmk0r_ni0zW-33" target="W33lec69Kxmk0r_ni0zW-5">
          <mxGeometry relative="1" as="geometry" />
        </mxCell>
        <mxCell id="W33lec69Kxmk0r_ni0zW-33" value="测试人员编号" style="ellipse;whiteSpace=wrap;html=1;" parent="1" vertex="1">
          <mxGeometry x="540" y="252" width="100" height="40" as="geometry" />
        </mxCell>
        <mxCell id="W33lec69Kxmk0r_ni0zW-40" style="edgeStyle=none;rounded=1;jumpStyle=none;orthogonalLoop=1;jettySize=auto;html=1;exitX=0.5;exitY=1;exitDx=0;exitDy=0;startArrow=none;endArrow=none;" parent="1" source="W33lec69Kxmk0r_ni0zW-34" edge="1">
          <mxGeometry relative="1" as="geometry">
            <mxPoint x="650" y="370" as="targetPoint" />
          </mxGeometry>
        </mxCell>
        <mxCell id="W33lec69Kxmk0r_ni0zW-34" value="测试设备编号" style="ellipse;whiteSpace=wrap;html=1;" parent="1" vertex="1">
          <mxGeometry x="540" y="300" width="100" height="40" as="geometry" />
        </mxCell>
        <mxCell id="W33lec69Kxmk0r_ni0zW-37" style="edgeStyle=none;rounded=1;jumpStyle=none;orthogonalLoop=1;jettySize=auto;html=1;exitX=0.5;exitY=0;exitDx=0;exitDy=0;entryX=0.5;entryY=1;entryDx=0;entryDy=0;startArrow=none;endArrow=none;" parent="1" source="W33lec69Kxmk0r_ni0zW-35" target="W33lec69Kxmk0r_ni0zW-5" edge="1">
          <mxGeometry relative="1" as="geometry" />
        </mxCell>
        <mxCell id="W33lec69Kxmk0r_ni0zW-35" value="测试方案" style="ellipse;whiteSpace=wrap;html=1;" parent="1" vertex="1">
          <mxGeometry x="544" y="423" width="100" height="40" as="geometry" />
        </mxCell>
        <mxCell id="W33lec69Kxmk0r_ni0zW-36" value="信息编号" style="ellipse;whiteSpace=wrap;html=1;" parent="1" vertex="1">
          <mxGeometry x="540" y="470" width="100" height="40" as="geometry" />
        </mxCell>
      </root>
    </mxGraphModel>
  </diagram>
</mxfile>
